<svg xmlns="http://www.w3.org/2000/svg" xmlns:xlink="http://www.w3.org/1999/xlink" width="500" zoomAndPan="magnify" viewBox="0 0 375 374.999991" height="500" preserveAspectRatio="xMidYMid meet" version="1.0"><defs><clipPath id="5e4fc56a77"><path d="M 77.109375 11.515625 L 302 11.515625 L 302 370.015625 L 77.109375 370.015625 Z M 77.109375 11.515625 " clip-rule="nonzero"/></clipPath></defs><g clip-path="url(#5e4fc56a77)"><path fill="#f05323" d="M 224.582031 370.167969 C 221.746094 370.164062 218.953125 369.152344 216.722656 367.320312 C 214.804688 365.742188 212.460938 364.308594 209.554688 362.945312 C 208.363281 362.382812 207.183594 361.804688 206.003906 361.226562 L 205.871094 361.164062 C 203.398438 359.953125 201.066406 358.8125 198.773438 357.890625 C 193.675781 355.828125 188.167969 353.761719 180.917969 351.191406 C 176.425781 349.597656 171.695312 348.050781 166.457031 346.464844 C 162.742188 345.34375 158.882812 344.371094 155.261719 343.492188 C 149.683594 342.132812 144.21875 340.867188 139.023438 339.730469 C 133.917969 338.609375 128.75 337.589844 124.363281 336.738281 C 121.453125 336.171875 118.523438 335.691406 115.269531 335.164062 C 112.523438 334.722656 109.839844 334.300781 107.242188 333.984375 C 104.214844 333.617188 101.203125 333.335938 97.585938 333.003906 C 96.320312 332.890625 95.050781 332.792969 93.785156 332.703125 C 92.40625 332.597656 91.03125 332.496094 89.660156 332.371094 C 87.199219 332.144531 84.996094 331.425781 83.109375 330.230469 C 79.914062 328.207031 77.839844 324.929688 77.417969 321.238281 C 77.152344 318.933594 77.550781 316.597656 78.566406 314.460938 C 78.636719 314.199219 78.71875 313.925781 78.816406 313.640625 C 79.40625 311.925781 80.019531 310.21875 80.636719 308.511719 C 81.929688 304.933594 83.148438 301.550781 84.078125 298.195312 C 84.714844 295.898438 84.9375 293.015625 85.171875 289.960938 L 85.214844 289.429688 C 85.507812 285.65625 84.84375 281.453125 84.144531 277.007812 C 83.867188 275.25 83.582031 273.441406 83.339844 271.570312 C 83.015625 269.046875 82.707031 266.519531 82.398438 263.988281 C 82.152344 261.984375 81.90625 259.980469 81.65625 257.980469 C 81.414062 256.074219 81.164062 254.167969 80.914062 252.265625 C 80.503906 249.164062 80.097656 246.066406 79.726562 242.964844 C 79.292969 239.332031 78.964844 235.84375 78.613281 231.984375 C 78.539062 231.203125 78.535156 230.5 78.542969 229.964844 C 78.378906 229.308594 78.269531 228.636719 78.222656 227.96875 C 77.710938 220.710938 77.292969 212.898438 77.707031 204.914062 C 77.765625 203.769531 77.8125 202.621094 77.863281 201.476562 C 77.945312 199.511719 78.03125 197.480469 78.171875 195.402344 C 78.886719 184.664062 80.046875 175.945312 81.816406 167.976562 C 84.445312 156.128906 87.617188 142.382812 92.027344 129.164062 C 93.84375 123.726562 95.855469 118.386719 97.800781 113.222656 L 97.855469 113.078125 C 98.648438 110.96875 99.445312 108.859375 100.222656 106.746094 C 100.648438 105.59375 101.21875 104.484375 101.96875 103.347656 C 104.375 99.714844 108.320312 97.542969 112.519531 97.542969 C 113.8125 97.542969 115.082031 97.742188 116.308594 98.140625 C 117.597656 97.703125 118.921875 97.476562 120.25 97.464844 C 121.105469 95.390625 122.253906 93.441406 123.675781 91.660156 C 123.726562 91.597656 123.777344 91.535156 123.828125 91.472656 C 123.058594 90.464844 122.378906 89.554688 121.742188 88.683594 C 117.894531 83.414062 115.539062 77.523438 114.742188 71.175781 C 114.269531 67.402344 114.898438 63.574219 116.566406 60.105469 C 118.949219 55.144531 123.785156 52.0625 129.183594 52.0625 C 129.699219 52.0625 130.214844 52.089844 130.726562 52.148438 C 132.492188 48.703125 134.914062 45.945312 137.949219 43.9375 C 140.746094 42.085938 143.898438 41.109375 147.074219 41.109375 C 149.410156 41.109375 151.695312 41.625 153.855469 42.640625 C 157.183594 44.210938 159.792969 46.820312 161.375 50.113281 C 161.949219 50.046875 162.527344 50.011719 163.105469 50.011719 C 171.082031 50.011719 177.359375 56.132812 177.785156 64.285156 C 177.984375 64.085938 178.195312 63.890625 178.414062 63.703125 C 179.539062 61.46875 180.664062 59.238281 181.792969 57.007812 C 182.238281 55.078125 183.164062 53.285156 184.488281 51.792969 C 187.386719 46.367188 190.675781 40.246094 195.171875 34.511719 C 198.3125 30.511719 202.132812 26.621094 206.855469 22.617188 C 210.484375 19.542969 214.359375 16.964844 218.375 14.957031 C 223.007812 12.640625 227.378906 11.515625 231.742188 11.515625 C 232.683594 11.515625 233.636719 11.566406 234.570312 11.675781 C 239 12.175781 243.117188 13.984375 246.800781 17.042969 C 252.550781 21.808594 256.019531 28.144531 256.847656 35.375 C 257.21875 36.566406 257.390625 37.800781 257.359375 39.042969 C 257.347656 39.53125 257.347656 40.035156 257.34375 40.535156 C 257.335938 42.398438 257.324219 44.414062 257.019531 46.640625 C 256.578125 49.886719 255.933594 53.261719 255.109375 56.671875 C 253.953125 61.4375 252.078125 66.113281 249.382812 70.910156 C 251.097656 71.378906 252.710938 72.007812 254.257812 72.8125 C 263.753906 77.738281 267.621094 87.863281 263.898438 97.714844 C 265.363281 99.574219 266.585938 101.5625 267.558594 103.652344 C 268.828125 103.273438 270.164062 103.074219 271.523438 103.074219 C 272.320312 103.074219 273.117188 103.144531 273.890625 103.28125 C 280.507812 104.453125 284.792969 110.675781 283.640625 117.441406 C 283.320312 119.347656 282.921875 121.617188 282.421875 123.984375 C 282.15625 125.238281 281.867188 126.488281 281.578125 127.738281 C 281.203125 129.355469 280.847656 130.886719 280.566406 132.359375 C 279.816406 136.320312 279.164062 140.175781 278.628906 143.816406 C 278.269531 146.246094 278.023438 148.753906 277.761719 151.410156 L 277.679688 152.269531 C 277.40625 155.015625 277.148438 158.019531 276.882812 161.453125 C 276.738281 163.34375 276.613281 165.390625 276.492188 167.890625 C 276.339844 171.101562 276.214844 174.316406 276.089844 177.527344 L 276.066406 178.136719 C 275.992188 180.054688 275.921875 181.828125 275.890625 183.597656 L 275.832031 186.492188 C 275.765625 189.699219 275.695312 192.996094 275.71875 196.160156 C 275.738281 199.117188 275.929688 202.183594 276.113281 205.152344 C 276.257812 207.453125 276.457031 209.746094 276.667969 212.175781 L 276.816406 213.878906 C 276.882812 214.667969 277.019531 216.347656 277.019531 216.347656 C 277.207031 218.671875 277.386719 220.867188 277.652344 223.003906 C 277.964844 225.515625 278.410156 228.289062 279.046875 231.734375 L 279.515625 234.261719 C 280.386719 239 281.285156 243.882812 282.324219 248.546875 C 283.242188 252.65625 284.351562 256.726562 285.53125 261.035156 L 286.011719 262.789062 C 288.835938 273.152344 292.324219 283.898438 296.386719 294.734375 C 297.074219 296.566406 298.039062 298.515625 299.058594 300.578125 C 299.480469 301.429688 299.902344 302.277344 300.308594 303.132812 C 301.984375 306.632812 302.082031 310.429688 300.585938 313.824219 C 299.132812 317.117188 296.273438 319.617188 292.734375 320.6875 C 291.679688 321.007812 290.617188 321.320312 289.554688 321.632812 C 286.753906 322.457031 284.109375 323.234375 281.578125 324.136719 C 278.105469 325.371094 274.421875 326.746094 271.003906 328.414062 C 268.285156 329.738281 265.566406 331.339844 262.6875 333.03125 C 261.746094 333.585938 260.8125 334.132812 259.875 334.675781 C 256.742188 336.488281 253.738281 338.800781 250.691406 341.742188 C 247.300781 345.019531 244.902344 347.878906 243.144531 350.75 C 241.589844 353.28125 240.121094 355.851562 238.5625 358.578125 C 237.730469 360.035156 236.894531 361.496094 236.046875 362.945312 C 235.242188 364.328125 234.289062 365.5625 233.214844 366.609375 C 230.863281 368.902344 227.796875 370.167969 224.578125 370.167969 C 224.582031 370.167969 224.582031 370.167969 224.582031 370.167969 Z M 224.582031 370.167969 " fill-opacity="1" fill-rule="nonzero"/></g><path fill="#dcb9c5" d="M 224.582031 367.644531 C 222.328125 367.644531 220.105469 366.839844 218.324219 365.371094 C 216.246094 363.660156 213.726562 362.121094 210.628906 360.664062 C 209.40625 360.085938 208.191406 359.492188 206.980469 358.898438 C 204.46875 357.671875 202.09375 356.511719 199.71875 355.550781 C 194.59375 353.480469 189.054688 351.402344 181.761719 348.816406 C 177.234375 347.207031 172.46875 345.652344 167.1875 344.054688 C 163.421875 342.914062 159.519531 341.933594 155.859375 341.042969 C 150.296875 339.6875 144.8125 338.417969 139.5625 337.269531 C 134.414062 336.136719 129.234375 335.113281 124.847656 334.261719 C 121.914062 333.691406 118.957031 333.207031 115.675781 332.675781 C 112.910156 332.230469 110.207031 331.804688 107.546875 331.484375 C 104.460938 331.109375 101.441406 330.828125 97.816406 330.496094 C 96.539062 330.378906 95.257812 330.28125 93.972656 330.1875 C 92.613281 330.085938 91.25 329.984375 89.890625 329.859375 C 87.832031 329.671875 86.007812 329.082031 84.460938 328.101562 C 81.914062 326.488281 80.257812 323.882812 79.921875 320.949219 C 79.703125 319.023438 80.066406 317.085938 80.941406 315.339844 C 81.011719 315.0625 81.097656 314.769531 81.203125 314.460938 C 81.789062 312.753906 82.398438 311.0625 83.011719 309.367188 C 84.316406 305.742188 85.554688 302.316406 86.507812 298.867188 C 87.210938 296.335938 87.441406 293.332031 87.6875 290.152344 L 87.730469 289.625 C 88.046875 285.554688 87.359375 281.210938 86.636719 276.609375 C 86.363281 274.871094 86.078125 273.078125 85.84375 271.25 C 85.519531 268.730469 85.210938 266.207031 84.902344 263.683594 C 84.65625 261.675781 84.410156 259.667969 84.15625 257.664062 C 83.917969 255.753906 83.664062 253.84375 83.414062 251.9375 C 83.007812 248.847656 82.601562 245.757812 82.234375 242.667969 C 81.804688 239.070312 81.476562 235.597656 81.125 231.753906 C 81.054688 230.957031 81.054688 230.246094 81.074219 229.664062 C 80.917969 229.121094 80.792969 228.492188 80.742188 227.789062 C 80.234375 220.613281 79.820312 212.894531 80.226562 205.042969 C 80.285156 203.890625 80.335938 202.738281 80.382812 201.582031 C 80.46875 199.628906 80.554688 197.605469 80.6875 195.570312 C 81.398438 184.960938 82.539062 176.367188 84.277344 168.523438 C 86.894531 156.738281 90.050781 143.066406 94.421875 129.964844 C 96.21875 124.585938 98.222656 119.261719 100.164062 114.109375 C 100.976562 111.945312 101.792969 109.785156 102.59375 107.617188 C 102.949219 106.648438 103.433594 105.707031 104.074219 104.738281 C 106.015625 101.808594 109.171875 100.058594 112.523438 100.058594 C 113.839844 100.058594 115.128906 100.328125 116.328125 100.832031 C 117.46875 100.339844 118.816406 99.984375 120.34375 99.984375 C 120.816406 99.984375 121.367188 100.019531 121.972656 100.121094 C 122.753906 97.632812 123.984375 95.316406 125.652344 93.230469 C 126.117188 92.644531 126.597656 92.089844 127.078125 91.558594 C 125.972656 90.132812 124.863281 88.679688 123.78125 87.195312 C 120.1875 82.273438 117.988281 76.777344 117.246094 70.859375 C 116.832031 67.566406 117.382812 64.226562 118.839844 61.195312 C 120.800781 57.117188 124.765625 54.578125 129.1875 54.578125 C 130.207031 54.578125 131.214844 54.71875 132.195312 54.980469 C 133.800781 51.125 136.203125 48.117188 139.347656 46.035156 C 141.726562 44.457031 144.402344 43.625 147.078125 43.625 C 149.042969 43.625 150.964844 44.058594 152.785156 44.917969 C 156.203125 46.527344 158.652344 49.371094 159.8125 52.976562 C 160.890625 52.679688 161.996094 52.53125 163.109375 52.53125 C 169.773438 52.53125 175.003906 57.714844 175.28125 64.589844 C 175.578125 72.050781 172.082031 77.707031 169 81.800781 C 168.734375 82.15625 168.46875 82.507812 168.199219 82.855469 C 169.171875 83.640625 170.136719 84.5625 171.050781 85.640625 C 173.007812 81.3125 174.964844 76.980469 176.925781 72.652344 C 176.90625 71.476562 177.121094 70.484375 177.339844 69.773438 C 177.910156 67.960938 178.945312 66.46875 180.429688 65.308594 C 181.683594 62.824219 182.9375 60.335938 184.191406 57.855469 C 184.515625 56.234375 185.273438 54.632812 186.566406 53.253906 C 189.636719 47.503906 192.835938 41.578125 197.160156 36.066406 C 200.191406 32.199219 203.898438 28.429688 208.488281 24.539062 C 211.964844 21.589844 215.671875 19.125 219.507812 17.207031 C 223.78125 15.070312 227.785156 14.03125 231.746094 14.03125 C 232.59375 14.03125 233.445312 14.082031 234.285156 14.175781 C 238.222656 14.625 241.894531 16.238281 245.195312 18.980469 C 250.511719 23.386719 253.671875 29.226562 254.375 35.90625 C 254.648438 36.707031 254.878906 37.75 254.847656 38.976562 C 254.832031 39.511719 254.832031 40.058594 254.828125 40.601562 C 254.820312 42.304688 254.808594 44.238281 254.527344 46.296875 C 254.097656 49.460938 253.472656 52.75 252.664062 56.074219 C 251.445312 61.109375 249.371094 66.046875 246.324219 71.175781 C 246.027344 71.679688 245.730469 72.175781 245.433594 72.675781 C 248.246094 73.058594 250.78125 73.84375 253.105469 75.046875 C 261.6875 79.5 265.015625 88.8125 261.191406 97.695312 C 261.128906 97.847656 261.058594 97.996094 260.992188 98.144531 C 263.3125 100.8125 265.054688 103.757812 266.195312 106.945312 C 267.769531 106.070312 269.640625 105.59375 271.527344 105.59375 C 272.179688 105.59375 272.828125 105.648438 273.457031 105.761719 C 278.691406 106.6875 282.078125 111.632812 281.164062 117.015625 C 280.847656 118.898438 280.453125 121.136719 279.964844 123.460938 C 279.703125 124.699219 279.417969 125.933594 279.128906 127.164062 C 278.75 128.808594 278.386719 130.363281 278.097656 131.890625 C 277.34375 135.882812 276.683594 139.769531 276.144531 143.445312 C 275.773438 145.9375 275.527344 148.476562 275.261719 151.167969 L 275.179688 152.019531 C 274.90625 154.785156 274.644531 157.804688 274.378906 161.257812 C 274.230469 163.171875 274.105469 165.238281 273.984375 167.769531 C 273.832031 170.988281 273.707031 174.207031 273.582031 177.425781 L 273.558594 178.035156 C 273.480469 179.9375 273.410156 181.738281 273.378906 183.546875 L 273.320312 186.4375 C 273.253906 189.648438 273.183594 192.96875 273.207031 196.175781 C 273.230469 199.203125 273.421875 202.308594 273.605469 205.3125 C 273.75 207.636719 273.953125 209.945312 274.167969 212.390625 L 274.3125 214.09375 C 274.382812 214.910156 274.449219 215.730469 274.515625 216.546875 C 274.707031 218.902344 274.886719 221.125 275.160156 223.3125 C 275.480469 225.875 275.929688 228.695312 276.578125 232.191406 L 277.042969 234.714844 C 277.917969 239.464844 278.824219 244.378906 279.875 249.09375 C 280.800781 253.257812 281.921875 257.359375 283.109375 261.699219 L 283.585938 263.453125 C 286.429688 273.886719 289.945312 284.707031 294.035156 295.617188 C 294.765625 297.5625 295.757812 299.570312 296.808594 301.691406 C 297.226562 302.53125 297.640625 303.371094 298.042969 304.21875 C 299.398438 307.042969 299.484375 310.09375 298.289062 312.804688 C 297.132812 315.421875 294.847656 317.417969 292.015625 318.273438 C 290.960938 318.589844 289.90625 318.902344 288.851562 319.210938 C 286.011719 320.046875 283.332031 320.835938 280.738281 321.761719 C 277.199219 323.019531 273.4375 324.425781 269.90625 326.144531 C 267.097656 327.515625 264.335938 329.140625 261.410156 330.859375 C 260.480469 331.40625 259.554688 331.953125 258.625 332.492188 C 255.308594 334.410156 252.144531 336.839844 248.949219 339.925781 C 245.40625 343.355469 242.878906 346.375 241.003906 349.429688 C 239.433594 351.992188 237.953125 354.582031 236.382812 357.324219 C 235.554688 358.773438 234.722656 360.226562 233.878906 361.671875 C 233.1875 362.859375 232.375 363.914062 231.460938 364.804688 C 229.578125 366.640625 227.136719 367.644531 224.582031 367.644531 Z M 224.582031 367.644531 " fill-opacity="1" fill-rule="nonzero"/><path fill="#fde3c1" d="M 88.925781 318.453125 C 88.996094 318.03125 89.007812 317.585938 89.148438 317.1875 C 90.984375 311.832031 93.09375 306.554688 94.601562 301.113281 C 95.566406 297.628906 95.820312 293.910156 96.101562 290.277344 C 96.628906 283.480469 95.035156 276.855469 94.171875 270.175781 C 93.589844 265.65625 93.0625 261.128906 92.488281 256.609375 C 91.859375 251.628906 91.167969 246.65625 90.570312 241.671875 C 90.148438 238.117188 89.816406 234.554688 89.488281 230.992188 C 89.40625 230.085938 89.542969 229.160156 89.5 228.25 C 89.480469 227.894531 89.144531 227.554688 89.117188 227.195312 C 88.605469 219.964844 88.238281 212.730469 88.613281 205.476562 C 88.773438 202.363281 88.859375 199.242188 89.066406 196.132812 C 89.644531 187.464844 90.585938 178.851562 92.476562 170.34375 C 95.296875 157.640625 98.265625 144.976562 102.386719 132.625 C 104.871094 125.1875 107.753906 117.886719 110.46875 110.527344 C 110.621094 110.121094 110.839844 109.734375 111.082031 109.371094 C 111.847656 108.210938 113.035156 108.160156 113.902344 109.230469 C 114.511719 109.988281 115.109375 110.75 115.828125 111.65625 C 116.632812 110.9375 117.386719 110.253906 118.152344 109.578125 C 120.207031 107.769531 121.210938 107.984375 122.40625 110.476562 C 122.679688 111.046875 122.957031 111.617188 123.277344 112.273438 C 125.40625 111.359375 127.484375 110.464844 129.566406 109.570312 C 130.269531 110.101562 131.027344 110.578125 131.660156 111.183594 C 132.1875 111.6875 132.601562 112.324219 133.007812 112.933594 C 133.320312 113.398438 133.625 113.425781 134.097656 113.1875 C 135.566406 112.460938 137.054688 111.769531 138.539062 111.0625 C 139.722656 110.503906 140.621094 110.648438 141.535156 111.609375 C 142.019531 112.121094 142.488281 112.65625 142.882812 113.238281 C 143.289062 113.84375 143.695312 113.945312 144.378906 113.652344 C 145.671875 113.101562 147.003906 112.644531 148.332031 112.183594 C 149.609375 111.742188 150.507812 112.070312 151.28125 113.195312 C 151.714844 113.820312 152.140625 114.453125 152.601562 115.125 C 154.535156 114.214844 156.378906 113.351562 158.222656 112.484375 C 159.621094 111.828125 160.320312 111.980469 161.292969 113.179688 C 161.984375 114.03125 162.664062 114.894531 163.417969 115.835938 C 165.136719 114.863281 166.789062 113.925781 168.445312 112.984375 C 169.320312 112.589844 170.21875 112.230469 171.070312 111.789062 C 173.039062 110.765625 173.757812 110.921875 175.179688 112.640625 C 175.765625 113.347656 176.457031 113.96875 177.101562 114.628906 C 177.445312 116.128906 177.839844 116.328125 179.078125 115.597656 C 179.390625 115.410156 179.664062 115.164062 179.960938 114.953125 C 181.28125 114.023438 182.601562 113.097656 183.921875 112.171875 C 184.554688 112.375 185.238281 112.480469 185.804688 112.796875 C 187 113.46875 188.199219 114.167969 189.273438 115.007812 C 190.25 115.769531 191.105469 115.8125 192.167969 115.242188 C 193.582031 114.484375 195.054688 113.835938 196.511719 113.164062 C 197.289062 112.804688 198.148438 112.476562 198.882812 113.117188 C 200.0625 114.148438 201.238281 115.210938 202.242188 116.40625 C 202.773438 117.042969 203.167969 117.21875 203.886719 116.914062 C 205.179688 116.363281 206.476562 115.8125 207.789062 115.320312 C 209.277344 114.765625 210.789062 113.980469 212.261719 115.390625 C 212.3125 115.445312 212.453125 115.40625 212.554688 115.410156 C 212.894531 115.957031 213.238281 116.5 213.578125 117.046875 C 213.738281 117.261719 213.90625 117.46875 214.058594 117.6875 C 214.589844 118.449219 215.113281 118.742188 216.101562 118.222656 C 218.195312 117.128906 220.382812 116.214844 222.53125 115.226562 C 221.167969 118.636719 219.6875 122.003906 218.480469 125.46875 C 217.265625 128.957031 216.289062 132.53125 215.269531 136.085938 C 214.613281 138.382812 214.042969 140.710938 213.464844 143.03125 C 212.898438 145.304688 212.316406 147.574219 211.839844 149.863281 C 211.269531 152.59375 210.820312 155.351562 210.292969 158.09375 C 210.101562 159.089844 209.742188 160.0625 209.628906 161.066406 C 209.363281 163.402344 209.242188 165.753906 208.976562 168.089844 C 208.800781 169.613281 208.382812 171.109375 208.234375 172.632812 C 208.097656 174.035156 208.1875 175.457031 208.160156 176.871094 C 208.113281 179.152344 208.015625 181.433594 208 183.714844 C 207.949219 191.050781 207.675781 198.394531 208.414062 205.714844 C 208.667969 208.238281 208.828125 210.777344 209.222656 213.28125 C 210.292969 220.058594 211.355469 226.839844 212.625 233.582031 C 213.613281 238.84375 214.863281 244.058594 216.085938 249.269531 C 216.78125 252.230469 217.746094 255.125 218.433594 258.082031 C 220.945312 268.871094 222.496094 279.804688 223.265625 290.851562 C 223.527344 294.589844 223.777344 298.335938 223.796875 302.078125 C 223.84375 311.5 224.164062 320.921875 223.3125 330.339844 C 222.933594 334.558594 222.964844 338.820312 222.882812 343.0625 C 222.8125 346.519531 222.855469 349.976562 222.839844 353.433594 C 222.839844 353.710938 222.804688 353.988281 222.777344 354.34375 C 222.4375 354.167969 222.199219 354.050781 221.96875 353.921875 C 219.574219 352.570312 217.199219 351.183594 214.777344 349.882812 C 213.113281 348.988281 211.398438 348.183594 209.675781 347.398438 C 207.179688 346.265625 204.683594 345.117188 202.136719 344.097656 C 199.277344 342.957031 196.363281 341.957031 193.472656 340.898438 C 189.453125 339.425781 185.472656 337.820312 181.398438 336.511719 C 174.996094 334.457031 168.539062 332.582031 162.09375 330.667969 C 160.117188 330.082031 158.113281 329.570312 156.105469 329.109375 C 154.730469 328.792969 153.300781 328.695312 151.925781 328.382812 C 147.679688 327.421875 143.457031 326.355469 139.207031 325.417969 C 135.179688 324.53125 131.144531 323.691406 127.09375 322.949219 C 122.050781 322.023438 117.003906 321.128906 111.933594 320.382812 C 107.703125 319.761719 103.4375 319.351562 99.183594 318.890625 C 97.527344 318.714844 95.859375 318.621094 94.191406 318.554688 C 92.4375 318.480469 90.683594 318.484375 88.925781 318.453125 Z M 154.132812 177.230469 C 154.195312 177.425781 154.285156 177.710938 154.386719 177.996094 C 155.84375 182.09375 157.808594 185.871094 161.292969 188.644531 C 164.828125 191.453125 168.746094 192.347656 173.121094 190.960938 C 176.972656 189.742188 179.917969 187.261719 182.394531 184.1875 C 185.652344 180.140625 187.871094 175.542969 189.21875 170.535156 C 189.75 168.5625 190.277344 166.570312 190.578125 164.550781 C 190.925781 162.210938 191.203125 159.832031 191.191406 157.472656 C 191.179688 154.675781 191.015625 151.851562 190.589844 149.085938 C 189.769531 143.753906 188.015625 138.75 184.375 134.609375 C 180.285156 129.960938 174.398438 128.273438 168.597656 131.027344 C 165.179688 132.652344 162.460938 135.09375 160.339844 138.195312 C 159.117188 139.984375 158.015625 141.859375 156.851562 143.707031 C 156.769531 143.46875 156.671875 143.203125 156.578125 142.9375 C 155.125 138.847656 153.203125 135.039062 149.710938 132.285156 C 144.429688 128.113281 139.210938 128.632812 134.355469 131.421875 C 131.238281 133.214844 128.851562 135.9375 126.84375 138.964844 C 124.46875 142.542969 122.703125 146.425781 121.621094 150.53125 C 120.703125 154.003906 120.238281 157.617188 119.828125 161.199219 C 119.558594 163.550781 119.535156 165.976562 119.773438 168.332031 C 120.039062 170.90625 120.734375 173.441406 121.226562 175.996094 C 121.292969 176.34375 121.171875 176.75 121.296875 177.066406 C 121.59375 177.796875 122.027344 178.46875 122.335938 179.195312 C 124.035156 183.179688 126.164062 186.828125 129.980469 189.183594 C 133.371094 191.277344 136.960938 191.789062 140.75 190.488281 C 144.453125 189.21875 147.378906 186.835938 149.726562 183.789062 C 151.324219 181.710938 152.664062 179.433594 154.132812 177.230469 Z M 134.636719 237.132812 C 134.363281 244.832031 138.472656 249.050781 144.96875 248.128906 C 148.675781 247.601562 151.945312 245.835938 154.753906 243.316406 C 159.804688 238.789062 163.117188 233.132812 165.203125 226.757812 C 167.300781 220.347656 168.167969 213.699219 168.5625 206.984375 C 168.605469 206.238281 168.324219 205.617188 167.628906 205.355469 C 166.875 205.070312 166.066406 204.746094 165.300781 205.433594 C 164.503906 206.152344 163.734375 206.929688 162.84375 207.511719 C 157.058594 211.285156 150.675781 212.636719 143.835938 212.113281 C 140.9375 211.894531 138.203125 211.074219 135.5 210.085938 C 134.085938 209.566406 132.882812 208.773438 131.871094 207.648438 C 131.164062 206.863281 130.226562 206.867188 129.453125 207.546875 C 128.78125 208.136719 128.78125 208.710938 129.46875 209.621094 C 130.683594 211.234375 132.386719 212.179688 134.199219 212.914062 C 134.847656 213.171875 135.113281 213.527344 135.320312 214.152344 C 136.90625 218.976562 136.667969 223.863281 135.90625 228.777344 C 135.394531 232.085938 134.898438 235.398438 134.636719 237.132812 Z M 134.636719 237.132812 " fill-opacity="1" fill-rule="nonzero"/><path fill="#f05323" d="M 88.925781 318.453125 C 90.683594 318.484375 92.4375 318.480469 94.191406 318.554688 C 95.859375 318.621094 97.527344 318.714844 99.183594 318.890625 C 103.4375 319.351562 107.703125 319.761719 111.933594 320.382812 C 117.003906 321.128906 122.050781 322.023438 127.089844 322.949219 C 131.144531 323.691406 135.179688 324.53125 139.203125 325.417969 C 143.457031 326.351562 147.679688 327.417969 151.925781 328.382812 C 153.300781 328.695312 154.726562 328.792969 156.105469 329.109375 C 158.113281 329.566406 160.113281 330.078125 162.089844 330.667969 C 168.535156 332.582031 174.996094 334.453125 181.398438 336.511719 C 185.472656 337.820312 189.449219 339.425781 193.472656 340.898438 C 196.363281 341.957031 199.277344 342.957031 202.132812 344.097656 C 204.683594 345.113281 207.175781 346.261719 209.675781 347.398438 C 211.394531 348.183594 213.113281 348.988281 214.777344 349.882812 C 217.199219 351.183594 219.574219 352.570312 221.96875 353.917969 C 222.199219 354.050781 222.4375 354.164062 222.777344 354.34375 C 222.804688 353.988281 222.839844 353.710938 222.839844 353.433594 C 222.851562 349.976562 222.8125 346.515625 222.882812 343.0625 C 222.964844 338.820312 222.933594 334.558594 223.3125 330.339844 C 224.164062 320.921875 223.84375 311.5 223.796875 302.078125 C 223.777344 298.335938 223.527344 294.589844 223.265625 290.851562 C 222.496094 279.804688 220.941406 268.871094 218.433594 258.082031 C 217.746094 255.121094 216.777344 252.226562 216.085938 249.269531 C 214.859375 244.054688 213.613281 238.84375 212.621094 233.582031 C 211.355469 226.839844 210.289062 220.058594 209.222656 213.28125 C 208.828125 210.777344 208.667969 208.238281 208.414062 205.714844 C 207.675781 198.390625 207.949219 191.050781 208 183.714844 C 208.015625 181.433594 208.109375 179.152344 208.160156 176.871094 C 208.1875 175.457031 208.097656 174.03125 208.234375 172.628906 C 208.382812 171.105469 208.800781 169.609375 208.976562 168.089844 C 209.242188 165.753906 209.363281 163.398438 209.628906 161.0625 C 209.742188 160.0625 210.101562 159.089844 210.292969 158.089844 C 210.820312 155.351562 211.269531 152.59375 211.839844 149.863281 C 212.316406 147.570312 212.894531 145.300781 213.464844 143.03125 C 214.042969 140.707031 214.609375 138.382812 215.269531 136.082031 C 216.289062 132.53125 217.265625 128.957031 218.480469 125.46875 C 219.6875 122.003906 221.167969 118.636719 222.53125 115.226562 C 222.757812 114.863281 222.988281 114.5 223.105469 114.3125 C 224.707031 113.832031 225.695312 114.691406 226.707031 115.558594 C 228.125 116.769531 229.574219 117.949219 231.140625 119.253906 C 232.550781 117.804688 233.90625 116.371094 235.308594 114.976562 C 236.855469 113.429688 238.105469 113.707031 238.949219 115.75 C 239.507812 117.101562 240.054688 118.457031 240.652344 119.925781 C 242.464844 117.964844 244.179688 116.085938 245.925781 114.238281 C 247.183594 112.914062 248.386719 113.027344 249.386719 114.558594 C 250.445312 116.175781 251.457031 117.824219 252.546875 119.546875 C 254.011719 117.972656 255.398438 116.480469 256.789062 114.992188 C 257.667969 114.050781 258.203125 113.976562 259.335938 114.628906 C 260.070312 115.851562 260.816406 117.066406 261.535156 118.296875 C 261.9375 118.988281 262.292969 119.707031 262.738281 120.546875 C 264.253906 119.242188 265.707031 117.976562 267.179688 116.730469 C 268.160156 115.90625 269.117188 115.039062 270.1875 114.339844 C 270.660156 114.03125 271.410156 113.933594 271.980469 114.03125 C 272.742188 114.167969 273 114.890625 272.878906 115.613281 C 272.53125 117.65625 272.164062 119.699219 271.738281 121.730469 C 271.132812 124.601562 270.382812 127.449219 269.839844 130.332031 C 269.089844 134.28125 268.414062 138.246094 267.824219 142.21875 C 267.386719 145.199219 267.105469 148.203125 266.8125 151.199219 C 266.503906 154.332031 266.238281 157.472656 265.996094 160.613281 C 265.824219 162.863281 265.695312 165.117188 265.589844 167.371094 C 265.429688 170.742188 265.296875 174.113281 265.164062 177.484375 C 265.089844 179.453125 265.011719 181.425781 264.972656 183.394531 C 264.894531 187.675781 264.769531 191.960938 264.800781 196.242188 C 264.824219 199.441406 265.019531 202.640625 265.21875 205.835938 C 265.402344 208.832031 265.683594 211.824219 265.9375 214.816406 C 266.210938 218 266.421875 221.191406 266.816406 224.359375 C 267.210938 227.496094 267.738281 230.617188 268.3125 233.726562 C 269.378906 239.46875 270.398438 245.222656 271.667969 250.921875 C 272.769531 255.875 274.140625 260.769531 275.476562 265.667969 C 278.511719 276.804688 282.113281 287.765625 286.164062 298.570312 C 287.359375 301.753906 288.988281 304.773438 290.460938 307.847656 C 290.996094 308.964844 290.671875 309.90625 289.578125 310.234375 C 285.679688 311.414062 281.746094 312.488281 277.914062 313.851562 C 273.953125 315.261719 269.992188 316.761719 266.21875 318.601562 C 262.167969 320.574219 258.316406 322.964844 254.410156 325.226562 C 250.269531 327.621094 246.539062 330.574219 243.105469 333.890625 C 239.613281 337.265625 236.382812 340.894531 233.835938 345.042969 C 231.335938 349.121094 229.027344 353.3125 226.617188 357.445312 C 226.332031 357.933594 225.988281 358.40625 225.585938 358.796875 C 225.007812 359.363281 224.277344 359.394531 223.660156 358.890625 C 220.773438 356.511719 217.574219 354.648438 214.203125 353.0625 C 210.425781 351.285156 206.726562 349.324219 202.859375 347.761719 C 196.824219 345.324219 190.707031 343.078125 184.570312 340.898438 C 179.628906 339.148438 174.632812 337.53125 169.617188 336.015625 C 165.734375 334.839844 161.789062 333.84375 157.84375 332.882812 C 152.363281 331.546875 146.867188 330.269531 141.359375 329.0625 C 136.402344 327.976562 131.425781 326.984375 126.445312 326.019531 C 123.3125 325.410156 120.160156 324.894531 117.011719 324.386719 C 114.195312 323.933594 111.378906 323.488281 108.550781 323.144531 C 105.234375 322.746094 101.90625 322.4375 98.578125 322.132812 C 95.9375 321.890625 93.289062 321.738281 90.648438 321.496094 C 90.066406 321.445312 89.425781 321.308594 88.945312 321.003906 C 88.011719 320.410156 88.050781 319.34375 88.925781 318.453125 Z M 88.925781 318.453125 " fill-opacity="1" fill-rule="nonzero"/><path fill="#f3819c" d="M 212.554688 115.410156 C 212.457031 115.40625 212.316406 115.441406 212.261719 115.390625 C 210.792969 113.980469 209.277344 114.765625 207.789062 115.320312 C 206.476562 115.8125 205.179688 116.359375 203.886719 116.910156 C 203.167969 117.21875 202.773438 117.042969 202.242188 116.40625 C 201.238281 115.210938 200.0625 114.148438 198.882812 113.117188 C 198.148438 112.476562 197.289062 112.804688 196.511719 113.164062 C 195.054688 113.835938 193.582031 114.480469 192.171875 115.238281 C 191.105469 115.808594 190.25 115.765625 189.273438 115.003906 C 188.199219 114.164062 187 113.464844 185.808594 112.796875 C 185.238281 112.480469 184.554688 112.375 183.921875 112.171875 C 185.394531 111.488281 186.839844 110.746094 188.34375 110.144531 C 189.640625 109.625 191.074219 109.421875 192.316406 108.808594 C 194.140625 107.902344 195.890625 106.828125 197.585938 105.695312 C 198.925781 104.800781 200.171875 103.753906 201.398438 102.703125 C 202.640625 101.640625 203.789062 100.46875 205.015625 99.382812 C 206.070312 98.453125 207.230469 97.632812 208.246094 96.664062 C 209.59375 95.382812 210.964844 94.097656 212.105469 92.644531 C 212.941406 91.574219 212.71875 90.1875 211.847656 89.28125 C 211.371094 88.785156 210.816406 88.273438 210.195312 88.015625 C 206.996094 86.691406 203.65625 86.457031 200.273438 87.113281 C 194.878906 88.15625 189.75 90.027344 184.765625 92.3125 C 183.441406 92.917969 182.050781 93.398438 180.78125 94.097656 C 178.773438 95.203125 176.835938 96.445312 174.871094 97.632812 C 175.742188 95.679688 176.613281 93.730469 177.492188 91.78125 C 180.042969 86.136719 182.597656 80.492188 185.152344 74.847656 C 185.359375 74.394531 185.585938 73.949219 185.804688 73.5 C 186.34375 73.464844 186.886719 73.472656 187.417969 73.382812 C 189.925781 72.964844 192.410156 72.367188 194.933594 72.128906 C 198.09375 71.824219 201.117188 71.191406 204.050781 69.9375 C 206.75 68.785156 209.210938 67.28125 211.570312 65.574219 C 213.929688 63.863281 216.238281 62.082031 218.625 60.410156 C 222.296875 57.84375 226.355469 56.007812 230.46875 54.277344 C 231.964844 53.648438 233.269531 52.691406 234.246094 51.359375 C 235.46875 49.6875 235.128906 47.777344 233.394531 46.660156 C 232.894531 46.335938 232.335938 46.074219 231.773438 45.875 C 228.355469 44.667969 224.796875 44.820312 221.332031 45.28125 C 216.300781 45.953125 211.503906 47.613281 206.933594 49.839844 C 205.058594 50.75 203.265625 51.847656 201.484375 52.941406 C 199.757812 54.007812 198.082031 55.160156 196.40625 56.304688 C 195.332031 57.039062 194.292969 57.832031 193.238281 58.597656 C 196.429688 52.621094 199.566406 46.605469 203.769531 41.25 C 206.757812 37.441406 210.222656 34.082031 213.917969 30.949219 C 216.800781 28.503906 219.894531 26.40625 223.261719 24.722656 C 226.425781 23.140625 229.746094 22.117188 233.335938 22.523438 C 235.789062 22.800781 237.917969 23.859375 239.832031 25.445312 C 243.59375 28.566406 245.722656 32.503906 246.074219 37.390625 C 246.09375 37.65625 246.164062 37.917969 246.210938 38.183594 C 245.605469 38.492188 245.390625 38.984375 245.425781 39.664062 C 245.464844 40.5 245.484375 41.34375 245.40625 42.175781 C 244.902344 47.738281 243.398438 53.03125 241.101562 58.113281 C 237.074219 67.027344 231.824219 75.242188 226.648438 83.503906 C 220.628906 93.105469 215.832031 103.277344 212.605469 114.160156 C 212.488281 114.546875 212.566406 114.992188 212.554688 115.410156 Z M 212.554688 115.410156 " fill-opacity="1" fill-rule="nonzero"/><path fill="#f05323" d="M 138.230469 92.195312 C 135.667969 88.882812 133.03125 85.625 130.5625 82.242188 C 127.859375 78.542969 126.152344 74.378906 125.578125 69.8125 C 125.363281 68.105469 125.65625 66.398438 126.40625 64.835938 C 127.390625 62.789062 129.746094 62.375 131.457031 63.90625 C 133.03125 65.308594 133.839844 67.179688 134.613281 69.085938 C 135.515625 71.3125 136.5 73.507812 137.488281 75.703125 C 137.710938 76.195312 138.09375 76.621094 138.574219 77.007812 C 138.574219 75.316406 138.570312 73.628906 138.578125 71.9375 C 138.582031 69.808594 138.597656 67.675781 138.601562 65.542969 C 138.605469 63.28125 138.886719 61.0625 139.664062 58.933594 C 140.527344 56.554688 141.820312 54.472656 143.980469 53.039062 C 145.625 51.949219 147.421875 51.679688 149.203125 52.519531 C 151.171875 53.445312 151.992188 55.214844 152.148438 57.320312 C 152.417969 61.003906 151.269531 64.46875 150.457031 67.980469 C 149.910156 70.335938 149.417969 72.699219 149.933594 75.132812 C 149.972656 75.316406 150.0625 75.492188 150.222656 75.933594 C 150.9375 74.566406 151.550781 73.390625 152.167969 72.21875 C 153.609375 69.5 154.808594 66.59375 157.019531 64.398438 C 158.300781 63.132812 159.835938 61.953125 161.480469 61.265625 C 164.070312 60.1875 166.757812 61.792969 166.882812 64.929688 C 167.070312 69.574219 164.902344 73.273438 162.285156 76.75 C 159.847656 79.992188 157.1875 83.0625 154.625 86.210938 C 154.195312 86.257812 153.765625 86.332031 153.335938 86.347656 C 150.101562 86.453125 146.972656 87.082031 144.113281 88.617188 C 142.09375 89.699219 140.1875 90.996094 138.230469 92.195312 Z M 138.230469 92.195312 " fill-opacity="1" fill-rule="nonzero"/><path fill="#f05323" d="M 259.339844 114.628906 C 258.207031 113.976562 257.671875 114.050781 256.789062 114.992188 C 255.398438 116.480469 254.011719 117.976562 252.546875 119.546875 C 251.460938 117.824219 250.449219 116.175781 249.390625 114.558594 C 248.390625 113.027344 247.183594 112.914062 245.929688 114.238281 C 244.179688 116.085938 242.46875 117.964844 240.652344 119.925781 C 240.054688 118.457031 239.511719 117.101562 238.949219 115.75 C 238.105469 113.707031 236.855469 113.429688 235.308594 114.976562 C 233.910156 116.371094 232.550781 117.804688 231.144531 119.253906 C 229.574219 117.949219 228.125 116.769531 226.707031 115.554688 C 225.699219 114.691406 224.707031 113.832031 223.109375 114.3125 C 222.988281 114.5 222.761719 114.863281 222.53125 115.226562 C 220.382812 116.214844 218.195312 117.128906 216.101562 118.222656 C 215.113281 118.738281 214.589844 118.449219 214.058594 117.6875 C 213.90625 117.46875 213.738281 117.257812 213.578125 117.046875 C 213.847656 116.621094 214.222656 116.226562 214.367188 115.761719 C 215.027344 113.648438 215.519531 111.472656 216.269531 109.394531 C 217.175781 106.890625 218.25 104.449219 219.304688 102 C 219.949219 100.507812 220.6875 99.050781 221.382812 97.578125 C 221.375 97.507812 221.40625 97.46875 221.472656 97.46875 L 221.460938 97.488281 C 223.457031 96.851562 225.445312 96.183594 227.457031 95.585938 C 228.535156 95.265625 229.648438 95.066406 230.746094 94.8125 C 233.035156 94.898438 235.367188 94.730469 237.601562 95.128906 C 240.238281 95.601562 242.828125 96.445312 245.363281 97.34375 C 247.144531 97.976562 248.792969 98.964844 250.5 99.792969 C 251.601562 100.765625 252.765625 101.675781 253.785156 102.722656 C 256.398438 105.402344 258.207031 108.550781 258.976562 112.242188 C 259.140625 113.027344 259.21875 113.832031 259.339844 114.628906 Z M 259.339844 114.628906 " fill-opacity="1" fill-rule="nonzero"/><path fill="#f05323" d="M 138.230469 92.195312 C 140.1875 90.996094 142.09375 89.699219 144.113281 88.617188 C 146.976562 87.082031 150.101562 86.453125 153.339844 86.347656 C 153.769531 86.332031 154.199219 86.257812 154.628906 86.210938 C 156.046875 86.539062 157.5 86.761719 158.878906 87.214844 C 163.265625 88.652344 165.917969 91.90625 167.472656 96.046875 C 168.324219 98.308594 168.765625 100.730469 169.285156 103.105469 C 169.660156 104.8125 169.855469 106.558594 170.132812 108.285156 C 169.570312 109.851562 169.007812 111.417969 168.445312 112.984375 C 166.789062 113.921875 165.136719 114.859375 163.417969 115.835938 C 162.664062 114.890625 161.984375 114.03125 161.292969 113.179688 C 160.320312 111.980469 159.621094 111.828125 158.226562 112.484375 C 156.378906 113.351562 154.535156 114.214844 152.601562 115.121094 C 152.140625 114.449219 151.714844 113.820312 151.285156 113.195312 C 150.507812 112.066406 149.609375 111.742188 148.332031 112.183594 C 147.003906 112.640625 145.671875 113.097656 144.378906 113.648438 C 143.695312 113.941406 143.292969 113.84375 142.882812 113.234375 C 142.488281 112.65625 142.019531 112.117188 141.535156 111.609375 C 140.621094 110.648438 139.722656 110.5 138.539062 111.0625 C 137.054688 111.765625 135.570312 112.457031 134.101562 113.1875 C 133.625 113.421875 133.320312 113.394531 133.011719 112.933594 C 132.601562 112.320312 132.191406 111.683594 131.664062 111.183594 C 131.027344 110.578125 130.269531 110.101562 129.566406 109.566406 C 128.953125 105.511719 129.636719 101.695312 132.210938 98.46875 C 133.867188 96.394531 135.90625 94.625 137.769531 92.714844 C 137.929688 92.550781 138.078125 92.371094 138.230469 92.195312 Z M 158.71875 93.320312 C 159.605469 93.230469 160.511719 93.210938 161.371094 93.003906 C 161.703125 92.925781 162.179688 92.398438 162.152344 92.121094 C 162.117188 91.796875 161.601562 91.273438 161.292969 91.269531 C 159.425781 91.265625 157.527344 91.210938 155.691406 91.492188 C 151.875 92.070312 148.234375 93.328125 144.84375 95.152344 C 143.152344 96.058594 141.671875 97.355469 140.128906 98.523438 C 139.613281 98.914062 139.441406 99.597656 140.003906 99.980469 C 140.347656 100.214844 141.1875 100.207031 141.476562 99.945312 C 143.726562 97.921875 146.308594 96.488281 149.113281 95.433594 C 152.210938 94.273438 155.351562 93.269531 158.71875 93.320312 Z M 161.433594 98.890625 C 162.109375 98.890625 162.738281 99 163.304688 98.855469 C 163.714844 98.753906 164.042969 98.316406 164.410156 98.027344 C 164.109375 97.691406 163.855469 97.285156 163.492188 97.039062 C 163.246094 96.871094 162.847656 96.914062 162.515625 96.890625 C 159.148438 96.652344 155.933594 97.441406 152.796875 98.519531 C 150.078125 99.453125 147.464844 100.648438 145.195312 102.445312 C 144.863281 102.707031 144.792969 103.296875 144.601562 103.734375 C 145.082031 103.847656 145.566406 104.050781 146.046875 104.042969 C 146.359375 104.035156 146.671875 103.730469 146.976562 103.546875 C 147.757812 103.074219 148.492188 102.503906 149.316406 102.132812 C 150.894531 101.421875 152.5 100.734375 154.144531 100.195312 C 156.527344 99.414062 158.953125 98.769531 161.433594 98.890625 Z M 151.039062 108.664062 C 151.488281 108.535156 151.753906 108.484375 151.992188 108.382812 C 155.976562 106.652344 160.105469 105.527344 164.464844 105.285156 C 164.863281 105.261719 165.519531 104.730469 165.554688 104.382812 C 165.628906 103.707031 165.003906 103.484375 164.363281 103.515625 C 163.0625 103.582031 161.75 103.554688 160.460938 103.730469 C 157.066406 104.199219 153.875 105.382812 150.75 106.738281 C 150.441406 106.871094 150.140625 107.503906 150.195312 107.839844 C 150.25 108.167969 150.769531 108.421875 151.039062 108.664062 Z M 151.039062 108.664062 " fill-opacity="1" fill-rule="nonzero"/><path fill="#f3819c" d="M 168.445312 112.984375 C 169.007812 111.417969 169.570312 109.851562 170.132812 108.285156 C 171.261719 105.667969 172.390625 103.050781 173.519531 100.4375 C 174.109375 100.410156 174.828125 100.589844 175.261719 100.316406 C 176.457031 99.558594 177.453125 98.480469 178.671875 97.765625 C 183.976562 94.652344 189.667969 92.402344 195.492188 90.457031 C 198.957031 89.300781 202.492188 88.492188 206.148438 88.863281 C 207.4375 88.992188 208.722656 89.597656 209.898438 90.210938 C 210.773438 90.667969 210.625 91.890625 209.785156 92.519531 C 209.492188 92.738281 209.246094 93.011719 208.976562 93.261719 C 207.554688 94.597656 206.171875 95.972656 204.699219 97.25 C 203.160156 98.582031 201.5 99.773438 199.964844 101.105469 C 198.265625 102.582031 196.6875 104.222656 194.617188 105.1875 C 192.671875 106.101562 190.675781 106.90625 188.703125 107.757812 C 187.355469 108.335938 185.964844 108.832031 184.671875 109.515625 C 183.148438 110.324219 181.679688 111.246094 180.246094 112.207031 C 179.152344 112.941406 178.148438 113.8125 177.101562 114.625 C 176.457031 113.964844 175.765625 113.347656 175.179688 112.636719 C 173.757812 110.917969 173.039062 110.761719 171.070312 111.785156 C 170.21875 112.230469 169.320312 112.585938 168.445312 112.984375 Z M 168.445312 112.984375 " fill-opacity="1" fill-rule="nonzero"/><path fill="#f3819c" d="M 186.972656 71.296875 C 187 71.136719 186.988281 70.957031 187.058594 70.820312 C 188.851562 67.25 190.65625 63.683594 192.457031 60.117188 C 193.050781 60.539062 193.671875 60.914062 194.378906 60.414062 C 194.996094 59.984375 195.5625 59.488281 196.148438 59.015625 C 198.804688 56.875 201.53125 54.835938 204.628906 53.359375 C 206.761719 52.339844 208.859375 51.246094 211.039062 50.339844 C 216.152344 48.21875 221.421875 46.703125 227.039062 47.128906 C 228.617188 47.25 230.210938 47.636719 231.703125 48.171875 C 232.984375 48.625 233.09375 49.539062 232.144531 50.515625 C 231.566406 51.105469 230.894531 51.664062 230.160156 52.023438 C 228.070312 53.042969 225.910156 53.914062 223.816406 54.921875 C 221.28125 56.136719 218.765625 57.414062 216.503906 59.101562 C 214.355469 60.695312 212.316406 62.445312 210.125 63.976562 C 208.46875 65.132812 206.609375 65.992188 204.910156 67.09375 C 201.453125 69.339844 197.523438 69.917969 193.578125 70.457031 C 191.378906 70.757812 189.175781 71.019531 186.972656 71.296875 Z M 186.972656 71.296875 " fill-opacity="1" fill-rule="nonzero"/><path fill="#f05323" d="M 250.5 99.792969 C 248.792969 98.964844 247.140625 97.976562 245.363281 97.34375 C 242.828125 96.445312 240.238281 95.601562 237.601562 95.128906 C 235.367188 94.730469 233.035156 94.898438 230.746094 94.8125 C 231.066406 92.261719 231.453125 89.714844 231.6875 87.152344 C 231.917969 84.625 233.324219 82.976562 235.511719 82.058594 C 237.027344 81.421875 238.695312 80.859375 240.3125 80.816406 C 243.367188 80.734375 246.425781 81.050781 249.230469 82.507812 C 253.875 84.914062 255.546875 89.5625 253.472656 94.375 C 252.664062 96.257812 251.5 97.992188 250.5 99.792969 Z M 250.5 99.792969 " fill-opacity="1" fill-rule="nonzero"/><path fill="#f05323" d="M 186.972656 71.296875 C 189.175781 71.019531 191.378906 70.757812 193.578125 70.457031 C 197.523438 69.917969 201.453125 69.339844 204.910156 67.09375 C 206.609375 65.992188 208.46875 65.136719 210.125 63.976562 C 212.316406 62.445312 214.355469 60.695312 216.503906 59.101562 C 218.769531 57.417969 221.28125 56.140625 223.816406 54.921875 C 225.910156 53.914062 228.070312 53.046875 230.160156 52.023438 C 230.894531 51.664062 231.566406 51.105469 232.144531 50.515625 C 233.097656 49.542969 232.984375 48.628906 231.707031 48.171875 C 230.210938 47.640625 228.617188 47.253906 227.039062 47.132812 C 221.421875 46.703125 216.152344 48.21875 211.039062 50.34375 C 208.859375 51.246094 206.761719 52.34375 204.628906 53.359375 C 201.53125 54.839844 198.804688 56.878906 196.148438 59.015625 C 195.5625 59.488281 194.996094 59.984375 194.382812 60.417969 C 193.671875 60.914062 193.050781 60.539062 192.457031 60.121094 C 192.210938 59.351562 192.648438 58.9375 193.238281 58.597656 C 194.292969 57.832031 195.328125 57.039062 196.40625 56.304688 C 198.082031 55.160156 199.757812 54.007812 201.484375 52.945312 C 203.265625 51.847656 205.058594 50.753906 206.933594 49.839844 C 211.5 47.613281 216.300781 45.953125 221.328125 45.285156 C 224.792969 44.820312 228.355469 44.667969 231.773438 45.875 C 232.335938 46.074219 232.890625 46.339844 233.394531 46.660156 C 235.128906 47.777344 235.46875 49.6875 234.242188 51.359375 C 233.265625 52.695312 231.964844 53.648438 230.46875 54.28125 C 226.355469 56.011719 222.296875 57.84375 218.625 60.410156 C 216.238281 62.082031 213.929688 63.867188 211.566406 65.574219 C 209.210938 67.28125 206.75 68.785156 204.050781 69.9375 C 201.113281 71.191406 198.09375 71.824219 194.933594 72.128906 C 192.410156 72.367188 189.921875 72.964844 187.414062 73.382812 C 186.886719 73.472656 186.339844 73.464844 185.804688 73.5 C 184.925781 72.378906 185.214844 71.832031 186.972656 71.296875 Z M 186.972656 71.296875 " fill-opacity="1" fill-rule="nonzero"/><path fill="#f05323" d="M 177.101562 114.625 C 178.148438 113.816406 179.152344 112.941406 180.246094 112.207031 C 181.679688 111.246094 183.148438 110.324219 184.671875 109.515625 C 185.964844 108.832031 187.355469 108.335938 188.703125 107.757812 C 190.675781 106.90625 192.671875 106.101562 194.617188 105.191406 C 196.6875 104.222656 198.265625 102.582031 199.964844 101.105469 C 201.5 99.773438 203.160156 98.582031 204.699219 97.25 C 206.171875 95.976562 207.554688 94.597656 208.976562 93.261719 C 209.246094 93.015625 209.492188 92.738281 209.785156 92.523438 C 210.625 91.890625 210.777344 90.667969 209.898438 90.210938 C 208.722656 89.601562 207.4375 88.992188 206.148438 88.863281 C 202.492188 88.492188 198.957031 89.300781 195.492188 90.457031 C 189.667969 92.402344 183.976562 94.652344 178.671875 97.765625 C 177.453125 98.480469 176.457031 99.5625 175.261719 100.316406 C 174.828125 100.589844 174.109375 100.410156 173.519531 100.4375 C 173.003906 99.769531 173.261719 99.214844 173.773438 98.703125 C 174.074219 98.398438 174.390625 98.117188 174.703125 97.824219 C 174.761719 97.757812 174.824219 97.691406 174.882812 97.625 C 174.882812 97.625 174.871094 97.628906 174.871094 97.628906 C 176.835938 96.445312 178.769531 95.203125 180.78125 94.097656 C 182.050781 93.398438 183.441406 92.917969 184.765625 92.3125 C 189.75 90.027344 194.875 88.15625 200.273438 87.109375 C 203.65625 86.457031 206.992188 86.691406 210.195312 88.015625 C 210.816406 88.269531 211.371094 88.785156 211.847656 89.28125 C 212.714844 90.1875 212.941406 91.570312 212.101562 92.644531 C 210.964844 94.097656 209.59375 95.382812 208.246094 96.664062 C 207.230469 97.632812 206.070312 98.449219 205.015625 99.382812 C 203.789062 100.464844 202.640625 101.636719 201.398438 102.703125 C 200.171875 103.753906 198.925781 104.800781 197.585938 105.695312 C 195.886719 106.828125 194.136719 107.902344 192.3125 108.804688 C 191.074219 109.421875 189.640625 109.625 188.34375 110.144531 C 186.839844 110.746094 185.394531 111.488281 183.921875 112.171875 C 182.601562 113.097656 181.28125 114.023438 179.960938 114.953125 C 179.664062 115.160156 179.390625 115.410156 179.078125 115.59375 C 177.839844 116.328125 177.445312 116.125 177.101562 114.625 Z M 177.101562 114.625 " fill-opacity="1" fill-rule="nonzero"/><path fill="#f05323" d="M 221.382812 97.578125 C 220.6875 99.050781 219.949219 100.503906 219.304688 102 C 218.25 104.449219 217.171875 106.890625 216.269531 109.394531 C 215.519531 111.472656 215.027344 113.644531 214.367188 115.761719 C 214.222656 116.226562 213.847656 116.621094 213.578125 117.046875 C 213.238281 116.5 212.894531 115.953125 212.554688 115.40625 C 212.566406 114.992188 212.484375 114.546875 212.601562 114.160156 C 215.832031 103.277344 220.628906 93.105469 226.644531 83.503906 C 231.824219 75.242188 237.070312 67.023438 241.097656 58.113281 C 243.394531 53.03125 244.898438 47.738281 245.40625 42.175781 C 245.480469 41.34375 245.464844 40.5 245.421875 39.664062 C 245.390625 38.984375 245.605469 38.492188 246.210938 38.179688 C 246.292969 38.375 246.449219 38.570312 246.445312 38.765625 C 246.390625 40.898438 246.488281 43.058594 246.199219 45.164062 C 245.792969 48.164062 245.210938 51.152344 244.496094 54.097656 C 243.394531 58.644531 241.480469 62.878906 239.097656 66.890625 C 234.894531 73.96875 230.574219 80.980469 226.410156 88.082031 C 224.621094 91.136719 223.101562 94.347656 221.457031 97.488281 C 221.457031 97.488281 221.472656 97.46875 221.472656 97.464844 C 221.441406 97.503906 221.410156 97.539062 221.382812 97.578125 Z M 221.382812 97.578125 " fill-opacity="1" fill-rule="nonzero"/><path fill="#f05323" d="M 169.164062 193.285156 C 166.023438 193.285156 163.023438 192.164062 160.25 189.957031 C 157.496094 187.769531 155.433594 184.929688 153.730469 180.941406 C 152.890625 182.242188 152.019531 183.5625 151.054688 184.816406 C 148.339844 188.34375 145.054688 190.789062 141.296875 192.078125 C 139.746094 192.609375 138.183594 192.878906 136.65625 192.878906 C 134.074219 192.878906 131.535156 192.117188 129.097656 190.613281 C 124.648438 187.867188 122.402344 183.632812 120.792969 179.855469 C 120.664062 179.550781 120.507812 179.261719 120.355469 178.96875 C 120.144531 178.570312 119.929688 178.15625 119.742188 177.695312 C 119.53125 177.179688 119.550781 176.710938 119.5625 176.402344 C 119.566406 176.351562 119.570312 176.300781 119.566406 176.25 C 119.421875 175.503906 119.242188 174.695312 119.066406 173.890625 C 118.683594 172.148438 118.289062 170.34375 118.101562 168.503906 C 117.851562 166.039062 117.871094 163.515625 118.15625 161.007812 C 118.5625 157.472656 119.039062 153.71875 119.992188 150.101562 C 121.117188 145.855469 122.949219 141.796875 125.441406 138.035156 C 127.953125 134.253906 130.519531 131.6875 133.519531 129.964844 C 136.292969 128.371094 139.039062 127.5625 141.679688 127.5625 C 144.835938 127.5625 147.890625 128.707031 150.75 130.964844 C 153.988281 133.519531 155.917969 136.867188 157.214844 139.929688 C 157.773438 139.035156 158.351562 138.128906 158.953125 137.246094 C 161.296875 133.8125 164.300781 131.210938 167.875 129.511719 C 169.960938 128.519531 172.109375 128.019531 174.265625 128.019531 C 178.488281 128.019531 182.527344 129.964844 185.636719 133.5 C 189.109375 137.449219 191.269531 142.464844 192.25 148.832031 C 192.65625 151.46875 192.859375 154.292969 192.871094 157.464844 C 192.882812 160.136719 192.539062 162.789062 192.238281 164.800781 C 191.929688 166.851562 191.421875 168.808594 190.839844 170.972656 C 189.390625 176.355469 186.988281 181.160156 183.703125 185.242188 C 180.699219 188.972656 177.402344 191.367188 173.625 192.5625 C 172.117188 193.042969 170.617188 193.285156 169.164062 193.285156 Z M 164.226562 137.96875 C 163.230469 139.074219 162.3125 140.3125 161.449219 141.703125 C 158.339844 146.714844 156.429688 152.453125 155.605469 159.246094 C 154.929688 164.867188 155.191406 169.898438 156.414062 174.625 C 157.652344 179.410156 159.460938 182.867188 162.109375 185.507812 C 163.996094 187.390625 166.101562 188.445312 168.363281 188.644531 C 168.671875 188.671875 168.980469 188.683594 169.28125 188.683594 C 171.71875 188.683594 174.085938 187.808594 176.320312 186.082031 C 180.613281 182.761719 183.550781 178.304688 185.9375 171.40625 C 185.84375 171.402344 185.746094 171.398438 185.652344 171.390625 C 184.582031 171.328125 183.363281 171.253906 182.214844 170.828125 C 176.976562 168.882812 172.839844 165.378906 169.921875 160.417969 C 166.15625 154.011719 164.226562 146.867188 164.191406 139.183594 C 164.1875 138.777344 164.203125 138.371094 164.226562 137.96875 Z M 133.832031 135.386719 C 131.894531 136.960938 130.183594 139.003906 128.648438 141.566406 C 124.371094 148.707031 122.398438 156.65625 122.617188 165.867188 C 122.710938 169.871094 123.417969 173.703125 124.714844 177.257812 C 126.230469 181.402344 128.15625 184.246094 130.78125 186.21875 C 132.59375 187.582031 134.574219 188.273438 136.65625 188.273438 C 138.960938 188.273438 141.367188 187.394531 143.609375 185.730469 C 146.980469 183.234375 149.570312 179.785156 151.757812 174.886719 C 151.753906 174.820312 151.742188 174.75 151.734375 174.6875 C 151.609375 173.730469 151.480469 172.78125 151.351562 171.832031 C 151.128906 170.191406 150.90625 168.550781 150.710938 166.902344 C 150.660156 166.464844 150.648438 166.042969 150.652344 165.632812 C 147.675781 165.027344 145.042969 163.597656 142.636719 161.285156 C 139.507812 158.273438 137.222656 154.359375 135.65625 149.3125 C 134.847656 146.710938 134.238281 144.070312 133.847656 141.457031 C 133.542969 139.433594 133.6875 137.386719 133.816406 135.578125 C 133.820312 135.515625 133.828125 135.453125 133.832031 135.386719 Z M 133.832031 135.386719 " fill-opacity="1" fill-rule="nonzero"/><path fill="#f3819c" d="M 174.882812 97.625 C 174.824219 97.691406 174.761719 97.757812 174.703125 97.824219 C 174.761719 97.757812 174.824219 97.691406 174.882812 97.625 Z M 174.882812 97.625 " fill-opacity="1" fill-rule="nonzero"/><path fill="#f05323" d="M 154.132812 177.230469 C 152.664062 179.433594 151.324219 181.710938 149.722656 183.789062 C 147.378906 186.839844 144.453125 189.21875 140.75 190.488281 C 136.957031 191.789062 133.367188 191.277344 129.980469 189.183594 C 126.164062 186.828125 124.035156 183.179688 122.335938 179.195312 C 122.027344 178.46875 121.59375 177.796875 121.296875 177.066406 C 121.167969 176.75 121.292969 176.34375 121.226562 175.996094 C 120.734375 173.441406 120.035156 170.910156 119.773438 168.332031 C 119.535156 165.976562 119.558594 163.554688 119.824219 161.199219 C 120.238281 157.621094 120.699219 154.003906 121.617188 150.53125 C 122.703125 146.425781 124.46875 142.542969 126.84375 138.964844 C 128.851562 135.9375 131.238281 133.214844 134.355469 131.421875 C 139.207031 128.632812 144.425781 128.113281 149.710938 132.285156 C 153.199219 135.039062 155.121094 138.847656 156.578125 142.9375 C 156.671875 143.207031 156.765625 143.472656 156.851562 143.707031 C 158.015625 141.859375 159.117188 139.984375 160.339844 138.195312 C 162.457031 135.09375 165.175781 132.652344 168.59375 131.03125 C 174.398438 128.273438 180.285156 129.960938 184.375 134.613281 C 188.015625 138.75 189.769531 143.753906 190.589844 149.089844 C 191.015625 151.851562 191.179688 154.675781 191.191406 157.472656 C 191.199219 159.835938 190.925781 162.214844 190.574219 164.554688 C 190.273438 166.570312 189.75 168.5625 189.21875 170.539062 C 187.871094 175.546875 185.652344 180.144531 182.390625 184.191406 C 179.917969 187.261719 176.972656 189.742188 173.117188 190.964844 C 168.746094 192.347656 164.828125 191.453125 161.292969 188.644531 C 157.804688 185.871094 155.839844 182.09375 154.382812 177.996094 C 154.285156 177.710938 154.195312 177.425781 154.132812 177.230469 Z M 136.273438 131.859375 C 136.003906 131.96875 135.910156 131.996094 135.824219 132.042969 C 132.078125 134.058594 129.351562 137.121094 127.207031 140.703125 C 122.566406 148.457031 120.726562 156.933594 120.9375 165.90625 C 121.03125 169.996094 121.730469 173.984375 123.136719 177.835938 C 124.527344 181.632812 126.46875 185.078125 129.773438 187.5625 C 134.246094 190.921875 139.695312 190.722656 144.613281 187.078125 C 148.679688 184.0625 151.351562 179.964844 153.367188 175.398438 C 153.488281 175.132812 153.4375 174.769531 153.398438 174.460938 C 153.0625 171.875 152.683594 169.296875 152.378906 166.707031 C 152.285156 165.886719 152.363281 165.042969 152.363281 164.195312 C 148.957031 163.839844 146.171875 162.355469 143.800781 160.074219 C 140.550781 156.949219 138.574219 153.046875 137.257812 148.816406 C 136.488281 146.335938 135.890625 143.777344 135.507812 141.210938 C 135.238281 139.410156 135.363281 137.53125 135.492188 135.699219 C 135.582031 134.453125 135.984375 133.230469 136.273438 131.859375 Z M 166.359375 133.777344 C 165.992188 134.0625 165.617188 134.328125 165.265625 134.628906 C 163.171875 136.398438 161.460938 138.496094 160.019531 140.820312 C 156.550781 146.410156 154.726562 152.546875 153.941406 159.042969 C 153.289062 164.433594 153.425781 169.773438 154.789062 175.046875 C 155.914062 179.40625 157.671875 183.453125 160.921875 186.699219 C 162.941406 188.714844 165.367188 190.070312 168.21875 190.316406 C 171.613281 190.613281 174.664062 189.488281 177.34375 187.410156 C 183.144531 182.925781 186.097656 176.683594 188.222656 169.816406 C 187.761719 169.816406 187.398438 169.851562 187.042969 169.8125 C 185.621094 169.652344 184.101562 169.738281 182.800781 169.253906 C 177.847656 167.417969 174.019531 164.074219 171.367188 159.566406 C 167.683594 153.300781 165.90625 146.445312 165.871094 139.175781 C 165.863281 137.398438 166.183594 135.621094 166.359375 133.777344 Z M 166.359375 133.777344 " fill-opacity="1" fill-rule="nonzero"/><path fill="#f05323" d="M 134.636719 237.132812 C 134.898438 235.398438 135.394531 232.085938 135.90625 228.777344 C 136.667969 223.863281 136.90625 218.976562 135.320312 214.152344 C 135.113281 213.527344 134.847656 213.171875 134.199219 212.910156 C 132.382812 212.179688 130.683594 211.234375 129.464844 209.621094 C 128.777344 208.710938 128.78125 208.136719 129.453125 207.546875 C 130.226562 206.867188 131.164062 206.863281 131.871094 207.648438 C 132.882812 208.773438 134.082031 209.566406 135.5 210.085938 C 138.203125 211.074219 140.9375 211.894531 143.835938 212.113281 C 150.675781 212.636719 157.054688 211.285156 162.84375 207.511719 C 163.734375 206.929688 164.503906 206.152344 165.300781 205.433594 C 166.066406 204.746094 166.875 205.070312 167.628906 205.355469 C 168.320312 205.617188 168.605469 206.238281 168.5625 206.984375 C 168.167969 213.699219 167.300781 220.347656 165.203125 226.757812 C 163.117188 233.132812 159.804688 238.789062 154.753906 243.316406 C 151.945312 245.835938 148.675781 247.601562 144.964844 248.128906 C 138.472656 249.050781 134.363281 244.832031 134.636719 237.132812 Z M 134.636719 237.132812 " fill-opacity="1" fill-rule="nonzero"/><path fill="#dcb9c5" d="M 221.382812 97.578125 C 221.410156 97.539062 221.441406 97.503906 221.472656 97.46875 C 221.40625 97.46875 221.375 97.507812 221.382812 97.578125 Z M 221.382812 97.578125 " fill-opacity="1" fill-rule="nonzero"/><path fill="#f05323" d="M 158.71875 93.320312 C 155.351562 93.269531 152.210938 94.273438 149.113281 95.433594 C 146.304688 96.488281 143.726562 97.921875 141.476562 99.945312 C 141.183594 100.207031 140.34375 100.214844 140.003906 99.984375 C 139.441406 99.597656 139.613281 98.914062 140.125 98.523438 C 141.667969 97.359375 143.152344 96.058594 144.839844 95.152344 C 148.230469 93.328125 151.875 92.070312 155.6875 91.492188 C 157.527344 91.214844 159.425781 91.265625 161.292969 91.273438 C 161.601562 91.273438 162.117188 91.796875 162.148438 92.121094 C 162.175781 92.398438 161.703125 92.925781 161.371094 93.007812 C 160.511719 93.210938 159.605469 93.226562 158.71875 93.320312 Z M 158.71875 93.320312 " fill-opacity="1" fill-rule="nonzero"/><path fill="#f05323" d="M 161.433594 98.890625 C 158.953125 98.769531 156.527344 99.414062 154.144531 100.191406 C 152.5 100.730469 150.894531 101.417969 149.316406 102.128906 C 148.492188 102.5 147.757812 103.070312 146.980469 103.542969 C 146.675781 103.730469 146.359375 104.035156 146.046875 104.039062 C 145.566406 104.050781 145.082031 103.84375 144.601562 103.730469 C 144.792969 103.292969 144.863281 102.703125 145.195312 102.441406 C 147.46875 100.644531 150.082031 99.453125 152.796875 98.519531 C 155.9375 97.441406 159.148438 96.648438 162.519531 96.886719 C 162.847656 96.910156 163.246094 96.871094 163.492188 97.039062 C 163.855469 97.285156 164.109375 97.691406 164.410156 98.027344 C 164.042969 98.316406 163.714844 98.75 163.304688 98.855469 C 162.738281 99 162.105469 98.890625 161.433594 98.890625 Z M 161.433594 98.890625 " fill-opacity="1" fill-rule="nonzero"/><path fill="#f05323" d="M 151.039062 108.664062 C 150.769531 108.421875 150.253906 108.167969 150.199219 107.839844 C 150.140625 107.5 150.445312 106.871094 150.75 106.738281 C 153.875 105.378906 157.066406 104.195312 160.464844 103.730469 C 161.75 103.554688 163.0625 103.578125 164.363281 103.515625 C 165.003906 103.484375 165.628906 103.707031 165.554688 104.382812 C 165.519531 104.730469 164.863281 105.261719 164.464844 105.28125 C 160.105469 105.523438 155.980469 106.652344 151.996094 108.378906 C 151.753906 108.484375 151.488281 108.535156 151.039062 108.664062 Z M 151.039062 108.664062 " fill-opacity="1" fill-rule="nonzero"/><path fill="#dcb9c5" d="M 136.65625 189.113281 C 134.386719 189.113281 132.238281 188.367188 130.277344 186.890625 C 127.515625 184.816406 125.5 181.847656 123.925781 177.546875 C 122.597656 173.90625 121.875 169.980469 121.777344 165.886719 C 121.554688 156.515625 123.566406 148.417969 127.929688 141.132812 C 129.953125 137.753906 132.285156 135.238281 135.023438 133.484375 C 134.851562 134.207031 134.707031 134.90625 134.652344 135.640625 C 134.527344 137.402344 134.386719 139.402344 134.675781 141.335938 C 135.0625 143.902344 135.660156 146.503906 136.457031 149.066406 C 137.984375 153.972656 140.195312 157.769531 143.21875 160.679688 C 145.6875 163.054688 148.40625 164.453125 151.511719 164.929688 C 151.511719 164.945312 151.511719 164.957031 151.511719 164.96875 C 151.492188 165.5625 151.472656 166.179688 151.546875 166.804688 C 151.742188 168.445312 151.960938 170.082031 152.183594 171.71875 C 152.3125 172.667969 152.441406 173.621094 152.566406 174.570312 C 152.585938 174.722656 152.617188 174.988281 152.597656 175.074219 C 150.335938 180.183594 147.640625 183.789062 144.113281 186.40625 C 141.722656 188.179688 139.144531 189.113281 136.65625 189.113281 Z M 136.65625 189.113281 " fill-opacity="1" fill-rule="nonzero"/><path fill="#dcb9c5" d="M 169.28125 189.523438 C 168.953125 189.523438 168.625 189.507812 168.289062 189.480469 C 165.828125 189.265625 163.546875 188.128906 161.515625 186.101562 C 158.757812 183.351562 156.878906 179.769531 155.601562 174.835938 C 154.351562 170.007812 154.082031 164.871094 154.773438 159.144531 C 155.609375 152.226562 157.558594 146.378906 160.734375 141.261719 C 162.089844 139.074219 163.585938 137.253906 165.292969 135.71875 C 165.15625 136.851562 165.027344 138.019531 165.03125 139.179688 C 165.066406 146.710938 166.953125 153.714844 170.644531 159.988281 C 173.460938 164.78125 177.453125 168.164062 182.503906 170.039062 C 183.539062 170.421875 184.636719 170.488281 185.703125 170.550781 C 186.121094 170.574219 186.539062 170.597656 186.949219 170.644531 C 186.988281 170.648438 187.03125 170.652344 187.074219 170.65625 C 185.347656 175.960938 182.578125 182.300781 176.832031 186.746094 C 174.449219 188.589844 171.910156 189.523438 169.28125 189.523438 Z M 169.28125 189.523438 " fill-opacity="1" fill-rule="nonzero"/></svg>